<svg width="800" height="600" xmlns="http://www.w3.org/2000/svg">
 <g>
  <title>Layer 1</title>
  <ellipse stroke="#000" ry="299.5" rx="398.49998" id="svg_5" cy="300.49998" cx="398.50003" opacity="undefined" stroke-opacity="null" stroke-dasharray="null" stroke-width="0" fill="#ffffff"/>
  <text stroke="#000" transform="matrix(2.328783578127365,0,0,1.9159563524590124,-499.3503511733827,-311.83343416820986) " font-style="normal" font-weight="bold" fill="#000000" stroke-width="0" x="242.02027" y="405.76894" id="svg_2" font-size="250" font-family="serif" text-anchor="start" xml:space="preserve">BS</text>
  <path d="m423,355c-1,0 -1.05972,-0.65958 -2,-1c-7.34375,-2.65881 -8.72961,-7.22885 -13,-12c-4.71585,-5.26886 -6,-8 -7,-12l-1,-2l0,-2" id="svg_7" opacity="undefined" fill-opacity="null" stroke-opacity="null" stroke-dasharray="null" stroke-width="0" stroke="#000" fill="none"/>
  <path id="svg_8" d="m305.46499,489.28502l0,19.69426l34.22124,0l16.7271,44.40705l94.17419,0l30.87747,-67.51794l-146.40468,0l0,3.41609l-29.59532,0l0,0.00054zm78.19285,85.92497c0,6.99114 -6.22032,12.6584 -13.89312,12.6584s-13.89371,-5.6678 -13.89371,-12.6584s6.22032,-12.65786 13.89371,-12.65786s13.89312,5.66727 13.89312,12.65786zm64.34468,0c0,6.99114 -6.22032,12.6584 -13.89312,12.6584s-13.89371,-5.6678 -13.89371,-12.6584s6.22091,-12.65786 13.89371,-12.65786s13.89312,5.66727 13.89312,12.65786z" opacity="undefined" fill-opacity="null" stroke-opacity="null" stroke-dasharray="null" stroke-width="0" stroke="#000" fill="#000000"/>
  <path id="svg_9" d="m382.50801,533.66009l0,0.18275l2.5277,0l1.23552,0.41208l6.95605,0l2.28072,-0.62654l-10.81398,0l0,0.0317l-2.18602,0l0,0zm5.77561,0.79735c0,0.06487 -0.45946,0.11746 -1.0262,0.11746s-1.02624,-0.05259 -1.02624,-0.11746s0.45946,-0.11746 1.02624,-0.11746s1.0262,0.05259 1.0262,0.11746zm4.75273,0c0,0.06487 -0.45946,0.11746 -1.0262,0.11746s-1.02624,-0.05259 -1.02624,-0.11746s0.4595,-0.11746 1.02624,-0.11746s1.0262,0.05259 1.0262,0.11746z" opacity="undefined" fill-opacity="null" stroke-opacity="null" stroke-dasharray="null" stroke-width="0" stroke="#000" fill="#000000"/>
 </g>

</svg>